<svg xmlns="http://www.w3.org/2000/svg" width="42.5" height="42.5" viewBox="903.75 3009.25 42.5 42.5"><g data-name="Grupo 1331"><path d="M925 3009.25h0a21.25 21.25 0 0 1 21.25 21.25h0a21.25 21.25 0 0 1-21.25 21.25h0a21.25 21.25 0 0 1-21.25-21.25h0a21.25 21.25 0 0 1 21.25-21.25z" stroke-linejoin="round" stroke-linecap="round" stroke-width="1.448865" stroke="#ff0a6b" fill="transparent" data-name="Retângulo 208"/><g data-name="facebook"><path d="M928.883 3022.25h-2.475a4.125 4.125 0 0 0-4.125 4.125v2.475h-2.475v3.3h2.475v6.6h3.3v-6.6h2.475l.825-3.3h-3.3v-2.475c0-.455.37-.825.825-.825h2.475v-3.3Z" fill="rgba(0,0,0,0 )" fill-rule="evenodd"/><path d="M928.883 3022.25h-2.475a4.125 4.125 0 0 0-4.125 4.125v2.475h-2.475v3.3h2.475v6.6h3.3v-6.6h2.475l.825-3.3h-3.3v-2.475c0-.455.37-.825.825-.825h2.475v-3.3Z" stroke-linejoin="round" stroke-linecap="round" stroke-width="1.5" stroke="#ff0a6b" fill="transparent"/></g></g></svg>