<svg xmlns="http://www.w3.org/2000/svg" width="42.5" height="42.5" viewBox="848.75 3009.25 42.5 42.5"><g data-name="instagram"><path d="M870 3009.25h0a21.25 21.25 0 0 1 21.25 21.25h0a21.25 21.25 0 0 1-21.25 21.25h0a21.25 21.25 0 0 1-21.25-21.25h0a21.25 21.25 0 0 1 21.25-21.25z" stroke-linejoin="round" stroke-linecap="round" stroke-width="1.448865" stroke="#ff0a6b" fill="transparent" data-name="instagram"/><g data-name="icon"><path d="M866 3022.5h8a4 4 0 0 1 4 4v8a4 4 0 0 1-4 4h-8a4 4 0 0 1-4-4v-8a4 4 0 0 1 4-4Z" stroke-linejoin="round" stroke-linecap="round" stroke-width="1.5" stroke="#ff0a6b" fill="transparent" data-name="Caminho 722"/><path d="M873.401 3029.967a3.405 3.405 0 1 1-6.736 1 3.405 3.405 0 0 1 6.736-1Z" stroke-linejoin="round" stroke-linecap="round" stroke-width="1.5" stroke="#ff0a6b" fill="transparent" data-name="Caminho 723"/><path d="M874.4 3026.1h0" stroke-linejoin="round" stroke-linecap="round" stroke-width="1.5" stroke="#ff0a6b" fill="transparent" data-name="Caminho 724"/></g></g></svg>