<svg xmlns="http://www.w3.org/2000/svg" width="179.63" height="71" viewBox="655 29.5 179.63 71"><g data-name="logo"><path d="M683.991 47.372a5.039 5.039 0 1 0-.001-10.078 5.039 5.039 0 0 0 .001 10.078" fill="#ff0a6b" fill-rule="evenodd" data-name="elipse"/><path d="M690.702 71.484a6.712 6.712 0 0 1-6.71 6.716 6.712 6.712 0 0 1-6.711-6.716 6.712 6.712 0 0 1 6.71-6.716 6.712 6.712 0 0 1 6.71 6.716m22.289 0c0-13.453-9.161-24.74-21.572-28.026a7.47 7.47 0 0 1-7.427 6.675c-3.857 0-7.024-2.924-7.427-6.675C664.161 46.738 655 58.024 655 71.484c0 16.028 12.983 29.016 28.991 29.016s28.992-12.995 28.992-29.016m40.098-6.518h.437V42.789a28.978 28.978 0 0 0-8.546 2.657c-3.332 1.415-4.84 2.965-4.84 2.965v-4.099h-22.807v54.152h22.807V64.98h12.942v-.014Zm35.484 6.347a6.712 6.712 0 0 1-6.71 6.716 6.712 6.712 0 0 1-6.71-6.716 6.712 6.712 0 0 1 6.71-6.716 6.712 6.712 0 0 1 6.71 6.716m19.592.191c0-14.88-11.906-26.946-26.596-26.946-1.051 0-2.082.068-3.1.185V29.5h-20.56v68.95h20.56c1.796.035 2.049 0 3.1 0 14.69 0 26.596-12.065 26.596-26.946m26.472-27.171h-21.892v54.131h21.892V44.339Z" fill="#231f20" fill-rule="evenodd" data-name="nome"/></g></svg>