<svg xmlns="http://www.w3.org/2000/svg" width="42.5" height="42.5" viewBox="1014.749 3009.25 42.5 42.5"><g data-name="Grupo 1332"><path d="M1036 3009.25h0a21.25 21.25 0 0 1 21.25 21.25h0a21.25 21.25 0 0 1-21.25 21.25h0a21.25 21.25 0 0 1-21.25-21.25h0a21.25 21.25 0 0 1 21.25-21.25z" stroke-linejoin="round" stroke-linecap="round" stroke-width="1.448865" stroke="#ff0a6b" fill="transparent" data-name="Retângulo 207"/><path d="M1035.762 3020.654c1.077-.017 2.145-.008 3.214-.017.066 1.258.518 2.54 1.438 3.428.92.912 2.22 1.331 3.485 1.47v3.313c-1.184-.041-2.375-.288-3.452-.797-.469-.214-.904-.485-1.331-.765-.009 2.4.008 4.8-.017 7.192a6.277 6.277 0 0 1-1.11 3.238c-1.076 1.578-2.942 2.605-4.857 2.638-1.175.066-2.35-.255-3.353-.846-1.66-.978-2.827-2.77-3-4.693-.016-.411-.024-.822-.008-1.225a6.168 6.168 0 0 1 2.12-4.076c1.365-1.184 3.272-1.75 5.055-1.414.016 1.216-.033 2.433-.033 3.65-.814-.264-1.767-.19-2.482.303a2.854 2.854 0 0 0-1.118 1.439c-.172.419-.123.879-.115 1.323.197 1.348 1.496 2.482 2.877 2.358.92-.008 1.8-.542 2.276-1.323.157-.27.33-.55.337-.87.083-1.472.05-2.935.058-4.406.008-3.312-.008-6.616.016-9.92Z" stroke-linejoin="round" stroke-linecap="round" stroke-width="1.5" stroke="#ff0a6b" fill="transparent" data-name="tiktok"/></g></svg>