<svg xmlns="http://www.w3.org/2000/svg" width="42.5" height="42.5" viewBox="959.749 3009.25 42.5 42.5"><g data-name="youtube"><path d="M981 3009.25h0a21.25 21.25 0 0 1 21.25 21.25h0a21.25 21.25 0 0 1-21.25 21.25h0a21.25 21.25 0 0 1-21.25-21.25h0a21.25 21.25 0 0 1 21.25-21.25z" stroke-linejoin="round" stroke-linecap="round" stroke-width="1.448865" stroke="#ff0a6b" fill="transparent" data-name="Retângulo 207"/><g data-name="Icon feather-youtube"><path d="M991.737 3024.848c-.22-.937-.892-1.677-1.763-1.94-1.564-.408-7.818-.408-7.818-.408s-6.254 0-7.818.446c-.87.263-1.543 1.004-1.763 1.94a29.983 29.983 0 0 0-.418 5.133c-.01 1.734.13 3.465.418 5.172.242.907.91 1.614 1.763 1.863 1.564.446 7.818.446 7.818.446s6.254 0 7.818-.446c.87-.263 1.544-1.004 1.763-1.94.284-1.682.424-3.387.419-5.095.01-1.733-.13-3.465-.419-5.171Z" stroke-linejoin="round" stroke-linecap="round" stroke-width="1.5" stroke="#ff0a6b" fill="transparent" data-name="Caminho 720"/><path d="m980.121 3032.982 5.208-2.962-5.208-2.961v5.923Z" stroke-linejoin="round" stroke-linecap="round" stroke-width="1.5" stroke="#ff0a6b" fill="transparent" data-name="Caminho 721"/></g></g></svg>