<svg xmlns="http://www.w3.org/2000/svg" width="22" height="20.503" viewBox="1011 56.249 22 20.503"><path d="M1022.108 76.751h-.004c-.552 0-1-.483-1-1.08v-.186c-.097-1.003-.967-1.79-2.024-1.79h-7.079c-.552 0-1.001-.484-1.001-1.08V57.326c0-.596.449-1.078 1.001-1.078h6.068c1.646 0 3.11.809 4.031 2.059.906-1.25 2.345-2.06 3.962-2.06h5.939c.552 0 1 .483 1 1.08v15.286c0 .597-.448 1.08-1 1.08h-6.928a1.975 1.975 0 0 0-1.96 1.774v.204c0 .596-.448 1.08-1 1.08h-.005Zm-9.107-5.215h6.08c.736 0 1.428.203 2.023.56V61.403c0-.062.001-.124.003-.185-.097-1.567-1.423-2.812-3.038-2.812H1013v13.13Zm10.113-10.133v10.672a3.816 3.816 0 0 1 1.96-.54H1031v-13.13h-4.938c-1.565 0-2.85 1.238-2.952 2.798.003.066.004.133.004.2Z" fill="#ff0a6b" fill-rule="evenodd" data-name="icon"/></svg>