<svg xmlns="http://www.w3.org/2000/svg" width="22" height="19" viewBox="1011 57.5 22 19"><path d="M1015.056 76.5c-2.237 0-4.056-1.828-4.056-4.075v-10.85c0-2.247 1.82-4.075 4.056-4.075h13.888c2.236 0 4.056 1.828 4.056 4.074v10.85c0 2.248-1.82 4.076-4.056 4.076h-13.888Zm-2.117-4.075c0 1.173.95 2.125 2.117 2.125h13.888a2.121 2.121 0 0 0 2.115-2.125v-8.331l-8.551 5.287a.982.982 0 0 1-.509.144.98.98 0 0 1-.507-.144l-8.553-5.288v8.332Zm9.06-5.018 9.06-5.6v-.233a2.123 2.123 0 0 0-2.115-2.127h-13.888a2.124 2.124 0 0 0-2.117 2.127v.232l9.06 5.6Z" fill="#ff0a6b" fill-rule="evenodd" data-name="newsletter"/></svg>