<svg xmlns="http://www.w3.org/2000/svg" width="30" height="30" viewBox="188 7.95 30 30"><g data-name="search"><path d="M188 22.9a15 15 0 1 1 0 .1z" fill="#ff0a6b" fill-rule="evenodd" data-name="base"/><path d="m208.811 30.35-3.746-3.746a5.93 5.93 0 0 1-3.376 1.05 5.972 5.972 0 0 1-5.965-5.965 5.971 5.971 0 0 1 5.965-5.964 5.97 5.97 0 0 1 5.965 5.964 5.932 5.932 0 0 1-1.05 3.377l3.745 3.745a1.086 1.086 0 0 1-.768 1.858c-.28 0-.558-.107-.77-.32Zm-11.523-8.66a4.407 4.407 0 0 0 4.401 4.401 4.406 4.406 0 0 0 4.402-4.402 4.407 4.407 0 0 0-4.402-4.401 4.407 4.407 0 0 0-4.401 4.401Z" fill="#fff" fill-rule="evenodd" data-name="icon"/></g></svg>