<svg xmlns="http://www.w3.org/2000/svg" width="32.234" height="19.619" viewBox="3.735 10.123 32.234 19.619"><path d="m24.831 19.783-4.98-4.98-4.979 4.98-4.98-4.98-3.8 3.818-2.357-2.357 6.158-6.141 4.98 4.98 4.979-4.98 4.98 4.98 4.979-4.98 6.158 6.141-2.357 2.357-3.801-3.818-4.98 4.98m4.98 4.98 3.8 3.817 2.358-2.357-6.158-6.141-4.98 4.98-4.98-4.98-4.979 4.98-4.98-4.98-6.157 6.141 2.357 2.357 3.8-3.817 4.98 4.98 4.98-4.98 4.98 4.98 4.979-4.98Z" fill="#ff0a6b" fill-rule="evenodd" data-name="Path / zodiac-aquarius"/></svg>