<svg xmlns="http://www.w3.org/2000/svg" width="33.357" height="33.357" viewBox="2.714 3.336 33.357 33.357"><path d="M26.064 3.336c-1.751 0-3.486.45-5.003 1.35-.6.318-1.168.751-1.668 1.218-.5-.467-1.068-.9-1.668-1.217a9.798 9.798 0 0 0-5.004-1.351c-5.526 0-10.007 4.48-10.007 10.007 0 5.526 4.48 10.007 10.007 10.007v-3.336a6.671 6.671 0 1 1 0-13.343 6.72 6.72 0 0 1 5.004 2.269v27.752h3.336V8.94a6.672 6.672 0 0 1 9.857-.183c2.535 2.668 2.418 6.887-.25 9.422-1.268 1.185-2.886 1.835-4.604 1.835v3.336c5.527 0 10.007-4.48 10.007-10.007 0-5.527-4.48-10.007-10.007-10.007Z" fill="#ff0a6b" fill-rule="evenodd" data-name="Path / zodiac-aries"/></svg>