<svg xmlns="http://www.w3.org/2000/svg" width="21.707" height="30" viewBox="8.39 5 21.707 30"><path d="M23.39 21.667a6.559 6.559 0 0 0-3.333.916V10a5 5 0 0 0-5-5c-1.25 0-2.417.483-3.333 1.3A4.954 4.954 0 0 0 8.39 5v3.333c.92 0 1.667.747 1.667 1.667v16.667h3.333V10a1.667 1.667 0 0 1 3.334 0v18.333a3.333 3.333 0 0 1-3.334 3.334V35a6.57 6.57 0 0 0 5-2.3 6.623 6.623 0 0 0 9.4.633c2.784-2.366 3.1-6.583.667-9.366a6.682 6.682 0 0 0-5.067-2.3m0 10a3.333 3.333 0 1 1 0-6.667 3.333 3.333 0 0 1 0 6.667Z" fill="#ff0a6b" fill-rule="evenodd" data-name="Path / zodiac-capricorn"/></svg>