<svg xmlns="http://www.w3.org/2000/svg" width="33.157" height="32.89" viewBox="3.743 3.389 33.157 32.89"><path d="M30.33 8.66A43.302 43.302 0 0 0 36.9 6.49L35.633 3.39A39.617 39.617 0 0 1 20.322 6.49 39.875 39.875 0 0 1 5.012 3.44L3.742 6.491c2.135.9 4.32 1.618 6.572 2.168v22.35a43.301 43.301 0 0 0-6.572 2.168l1.268 3.102a39.929 39.929 0 0 1 30.622 0l1.267-3.102a43.302 43.302 0 0 0-6.57-2.168V8.659M13.65 30.341V9.31c2.202.333 4.437.517 6.672.517 2.235 0 4.47-.184 6.671-.517v21.048a43.648 43.648 0 0 0-13.342 0v-.017Z" fill="#ff0a6b" fill-rule="evenodd" data-name="Path / zodiac-gemini"/></svg>