<svg xmlns="http://www.w3.org/2000/svg" width="26.667" height="33.133" viewBox="6.355 3.333 26.667 33.133"><path d="M33.021 18.233h-3.333A39.6 39.6 0 0 1 32.705 4.6l-3.017-1.267a43.238 43.238 0 0 0-3.333 14.9H13.02a43.238 43.238 0 0 0-3.333-14.9L6.588 4.6a39.53 39.53 0 0 1 3.1 13.633H6.355v3.333h3.333A39.6 39.6 0 0 1 6.67 35.2l3.017 1.266a43.238 43.238 0 0 0 3.333-14.9h13.334a43.238 43.238 0 0 0 3.333 14.9l3.1-1.266a39.53 39.53 0 0 1-3.1-13.634h3.333v-3.333Z" fill="#ff0a6b" fill-rule="evenodd" data-name="Path / zodiac-pisces"/></svg>