<svg xmlns="http://www.w3.org/2000/svg" width="45" height="45" viewBox="315 1978.95 45 45"><g data-name="button"><path d="M315 2001.4a22.5 22.5 0 1 1 0 .1z" fill="#ff0a6b" fill-rule="evenodd" data-name="base"/><path d="M347.868 2001.316c0 1.62-.836 3.076-2.238 3.893l-9.068 5.284a4.468 4.468 0 0 1-4.52.016 4.459 4.459 0 0 1-2.264-3.908v-10.57c0-1.633.846-3.094 2.264-3.908a4.467 4.467 0 0 1 4.52.015l9.068 5.285a4.463 4.463 0 0 1 2.238 3.893Zm-15.083 5.285c0 .784.528 1.172.755 1.302.227.13.828.39 1.507-.005l9.068-5.285a1.476 1.476 0 0 0 .746-1.297c0-.26-.073-.905-.746-1.298l-9.068-5.285a1.478 1.478 0 0 0-1.507-.005c-.227.13-.755.518-.755 1.303v10.57Z" fill="#fff" fill-rule="evenodd" data-name="icon"/></g></svg>