<svg xmlns="http://www.w3.org/2000/svg" width="31" height="22.001" viewBox="145 2255 31 22.001"><g data-name="icon-youtube-play"><path d="M175.325 2258.548c-.355-1.343-1.135-2.48-2.47-2.838-2.421-.65-12.355-.71-12.355-.71s-9.934.06-12.354.71c-1.336.358-2.111 1.495-2.471 2.838-.648 2.433-.675 7.452-.675 7.452s.027 5.02.675 7.453c.355 1.343 1.135 2.48 2.47 2.837 2.421.651 12.355.71 12.355.71s9.934-.059 12.354-.71c1.336-.357 2.116-1.494 2.471-2.837.648-2.434.675-7.453.675-7.453s-.027-5.019-.675-7.452Z" fill="red" fill-rule="evenodd" data-name="Caminho 2269"/><path d="m165.514 2266-8.205-4.583v9.167" fill="#fafafa" fill-rule="evenodd" data-name="Caminho 2270"/></g></svg>