<svg xmlns="http://www.w3.org/2000/svg" width="60" height="65" viewBox="145 1062 60 65"><g data-name="CompositeLayer"><path d="M174.996 1072.44a5.221 5.221 0 1 0 0-10.442 5.221 5.221 0 0 0 0 10.442" fill="#ff0a6b" fill-rule="evenodd" data-name="elipse"/><g data-name="logo"><path d="M181.94 1097.184c0 3.812-3.108 6.901-6.944 6.901-3.835 0-6.942-3.089-6.942-6.901s3.107-6.901 6.942-6.901c3.836 0 6.943 3.089 6.943 6.9m23.061 0c0-13.823-9.479-25.42-22.319-28.798-.41 3.855-3.694 6.86-7.685 6.86-3.99 0-7.267-3.005-7.684-6.86-12.833 3.37-22.312 14.968-22.312 28.799 0 16.47 13.434 29.816 29.996 29.816 16.563 0 29.997-13.353 29.997-29.816" fill="#fff" fill-rule="evenodd" data-name="nome"/><path d="M174.996 1072.44a5.221 5.221 0 1 0 0-10.442 5.221 5.221 0 0 0 0 10.442" fill="#ff0a6b" fill-rule="evenodd" data-name="elipse"/></g></g></svg>