<svg xmlns="http://www.w3.org/2000/svg" width="10" height="10" viewBox="10 4 10 10"><g data-name="send"><path d="M14.643 9.926a.607.607 0 0 1-.43-1.037l4.75-4.711a.607.607 0 0 1 .86.859l-4.75 4.711a.605.605 0 0 1-.43.178Z" fill="#fafafa" fill-rule="evenodd" data-name="Caminho 707"/><path d="M19.511 4a.489.489 0 0 1 .462.65l-3.158 9.023a.489.489 0 0 1-.908.037L14.179 9.82 10.29 8.093a.489.489 0 0 1 .037-.908l9.023-3.158A.488.488 0 0 1 19.51 4ZM16.3 12.186l2.416-6.9L11.814 7.7l2.933 1.304c.11.049.2.137.248.248l1.304 2.933Z" fill="#fafafa" fill-rule="evenodd" data-name="Caminho 708"/></g></svg>