<svg xmlns="http://www.w3.org/2000/svg" width="33" height="33" viewBox="15 14.95 33 33"><g data-name="button"><path d="M15 31.4a16.5 16.5 0 1 1 0 .1z" fill="#fff" fill-rule="evenodd" data-name="base"/><path d="M39.262 31.53a3.27 3.27 0 0 1-1.64 2.852l-6.645 3.873a3.274 3.274 0 0 1-3.312.01 3.267 3.267 0 0 1-1.659-2.863v-7.745c0-1.197.62-2.267 1.66-2.864a3.274 3.274 0 0 1 3.311.012l6.645 3.872a3.27 3.27 0 0 1 1.64 2.853ZM28.21 35.402c0 .575.387.86.553.955.166.095.607.286 1.104-.004l6.645-3.873c.493-.287.546-.76.546-.95 0-.19-.053-.664-.546-.951l-6.645-3.873c-.497-.29-.938-.099-1.104-.003-.166.095-.553.379-.553.954v7.745Z" fill="#ff0a6b" fill-rule="evenodd" data-name="icon"/></g></svg>