<svg xmlns="http://www.w3.org/2000/svg" width="117.734" height="29.997" viewBox="1020 3925.002 117.734 29.997"><g data-name="logo-personare"><path d="M1031.793 3941.42a9.457 9.457 0 0 1 .656-1.483 5.44 5.44 0 0 1-2.17-4.342c0-3.01 2.463-5.456 5.49-5.456s5.488 2.448 5.488 5.456c0 1.769-.852 3.344-2.17 4.342.261.474.48.97.656 1.483 1.874-1.27 3.108-3.406 3.108-5.824 0-3.883-3.178-7.041-7.083-7.041-3.906 0-7.083 3.158-7.083 7.04a7.034 7.034 0 0 0 3.108 5.825Z" fill="#b31983" fill-rule="evenodd" data-name="Caminho 2240"/><path d="M1036.092 3945.069c-.332 2.696-2.646 4.79-5.447 4.79-3.027 0-5.489-2.447-5.489-5.455 0-3.01 2.463-5.456 5.489-5.456.758 0 1.48.154 2.139.43.294-.455.63-.885 1-1.284a7.072 7.072 0 0 0-3.14-.731c-3.905 0-7.082 3.158-7.082 7.04 0 3.883 3.177 7.042 7.083 7.042 3.75 0 6.828-2.914 7.066-6.584a9.014 9.014 0 0 1-1.619.208Z" fill="#73308a" fill-rule="evenodd" data-name="Caminho 2241"/><path d="M1040.893 3937.364a7.062 7.062 0 0 0-3.138.732c.37.399.704.828 1 1.284a5.498 5.498 0 0 1 2.14-.43c3.026 0 5.487 2.448 5.487 5.455 0 3.01-2.462 5.456-5.488 5.456-2.8 0-5.116-2.096-5.447-4.791a9.007 9.007 0 0 1-1.619-.208c.238 3.67 3.315 6.585 7.066 6.585 3.906 0 7.083-3.16 7.083-7.042-.002-3.884-3.179-7.041-7.084-7.041Z" fill="#f93549" fill-rule="evenodd" data-name="Caminho 2242"/><path d="M1030.646 3942.437c.294 0 .57.068.821.182a9.516 9.516 0 0 1 1.18-3.023 9.65 9.65 0 0 1 2.037-2.359 1.981 1.981 0 0 1-.797-1.032 10.562 10.562 0 0 0-3.63 6.27c.127-.025.256-.038.39-.038Z" fill="#ee4043" fill-rule="evenodd" data-name="Caminho 2243"/><path d="M1048.401 3936.8a10.684 10.684 0 0 0-7.58-3.121c-1.239 0-2.444.207-3.576.605.314.348.507.808.507 1.312 0 .023 0 .044-.002.066a9.25 9.25 0 0 1 3.07-.523c5.103 0 9.254 4.127 9.254 9.2 0 5.072-4.151 9.199-9.254 9.199-4.514 0-8.281-3.231-9.091-7.488a1.966 1.966 0 0 1-1.443.286 10.568 10.568 0 0 0 2.952 5.54 10.685 10.685 0 0 0 7.582 3.122 10.68 10.68 0 0 0 7.581-3.122 10.558 10.558 0 0 0 3.141-7.538c0-2.847-1.115-5.524-3.14-7.537Z" fill="#f93549" fill-rule="evenodd" data-name="Caminho 2244"/><path d="M1036.855 3937.237c.8.672 1.497 1.47 2.037 2.359a9.5 9.5 0 0 1 1.18 3.022 1.97 1.97 0 0 1 1.208-.145 10.554 10.554 0 0 0-3.631-6.27c-.14.428-.424.79-.794 1.034Z" fill="#6d2c90" fill-rule="evenodd" data-name="Caminho 2245"/><path d="M1040.891 3946.371c-.399 0-.769-.118-1.078-.32-.81 4.257-4.577 7.488-9.09 7.488-5.103 0-9.254-4.127-9.254-9.2 0-5.072 4.151-9.199 9.254-9.199 1.076 0 2.109.186 3.07.523a1.949 1.949 0 0 1 .506-1.378 10.81 10.81 0 0 0-3.576-.605 10.684 10.684 0 0 0-7.582 3.122 10.553 10.553 0 0 0-3.141 7.536c0 2.848 1.115 5.525 3.14 7.538a10.685 10.685 0 0 0 7.583 3.122c2.864 0 5.557-1.109 7.583-3.122a10.554 10.554 0 0 0 2.951-5.54c-.119.022-.24.035-.366.035Z" fill="#73308a" fill-rule="evenodd" data-name="Caminho 2246"/><path d="M1038.922 3944.508a9.22 9.22 0 0 1-3.154.568 9.228 9.228 0 0 1-3.155-.568 1.96 1.96 0 0 1-.482 1.186c1.151.412 2.377.627 3.636.627 1.26 0 2.485-.215 3.636-.627a1.976 1.976 0 0 1-.48-1.186Z" fill="#b3258e" fill-rule="evenodd" data-name="Caminho 2247"/><path d="M1043.35 3928.124a10.68 10.68 0 0 0-7.581-3.122 10.685 10.685 0 0 0-7.583 3.122 10.558 10.558 0 0 0-3.14 7.537 10.558 10.558 0 0 0 3.737 8.085c.172-.479.524-.871.975-1.098-1.983-1.69-3.243-4.194-3.243-6.987 0-5.072 4.151-9.199 9.254-9.199 5.102 0 9.253 4.127 9.253 9.2a9.156 9.156 0 0 1-3.243 6.986c.452.225.803.62.975 1.098a10.558 10.558 0 0 0 3.738-8.084 10.56 10.56 0 0 0-3.142-7.538Z" fill="#b31983" fill-rule="evenodd" data-name="Caminho 2248"/><path d="M1032.614 3944.51a1.976 1.976 0 0 1-3.948-.105 1.976 1.976 0 0 1 2.8-1.786c.097-.478.233-.948.402-1.405a3.44 3.44 0 0 0-1.223-.225c-1.895 0-3.435 1.531-3.435 3.415 0 1.883 1.54 3.415 3.435 3.415a3.434 3.434 0 0 0 3.398-2.915 9.614 9.614 0 0 1-1.43-.395Z" fill="#73308a" fill-rule="evenodd" data-name="Caminho 2249"/><path d="M1040.892 3940.99c-.43 0-.843.08-1.223.224.169.457.305.927.403 1.405a1.97 1.97 0 0 1 .82-.183c1.09 0 1.978.883 1.978 1.968a1.976 1.976 0 0 1-3.948.105 9.69 9.69 0 0 1-1.43.397 3.435 3.435 0 0 0 3.4 2.914c1.894 0 3.434-1.531 3.434-3.415 0-1.883-1.54-3.416-3.434-3.416Z" fill="#f93549" fill-rule="evenodd" data-name="Caminho 2250"/><path d="M1033.631 3938.265a9.948 9.948 0 0 1 1.053-1.029 1.96 1.96 0 0 1-.894-1.641c0-1.085.888-1.968 1.979-1.968 1.091 0 1.98.883 1.98 1.968 0 .685-.358 1.288-.894 1.64.376.317.728.66 1.053 1.028a3.4 3.4 0 0 0 1.297-2.67c0-1.883-1.54-3.415-3.435-3.415-1.894 0-3.435 1.532-3.435 3.415a3.394 3.394 0 0 0 1.296 2.672Z" fill="#b31983" fill-rule="evenodd" data-name="Caminho 2251"/><path d="M1061.019 3933.626c3.169 0 4.99 1.557 4.99 4.281 0 2.831-1.821 4.48-4.99 4.48h-2.9v3.78h-2.124v-12.541h5.024Zm-2.9 6.86h2.81c1.944 0 3.043-.823 3.043-2.526 0-1.648-1.1-2.435-3.043-2.435h-2.81v4.961Z" fill="#1f2b7d" fill-rule="evenodd" data-name="Caminho 2252"/><path d="M1075.97 3942.189h-7.24c.325 1.47 1.459 2.382 2.971 2.382 1.045 0 1.78-.392 2.483-1.11l1.317 1.165c-.937 1.021-2.304 1.612-3.962 1.612-2.95 0-4.897-1.952-4.897-4.82 0-2.884 1.998-4.837 4.844-4.854 3.366 0 4.736 2.185 4.484 5.625Zm-1.801-1.505c-.071-1.54-1.098-2.471-2.665-2.471-1.513 0-2.574.948-2.81 2.471h5.475Z" fill="#1f2b7d" fill-rule="evenodd" data-name="Caminho 2253"/><path d="M1079.38 3938.534c.649-1.29 1.802-1.97 3.312-1.97v1.97c-1.925-.107-3.15 1.022-3.311 2.652v4.98h-2.072v-9.532h2.072v1.9Z" fill="#1f2b7d" fill-rule="evenodd" data-name="Caminho 2254"/><path d="m1090.422 3937.513-.977 1.523c-.846-.52-1.691-.842-2.537-.842-.81 0-1.403.27-1.403.95 0 1.755 5.094.806 5.076 4.265 0 1.952-1.746 2.83-3.675 2.83-1.403 0-3.117-.465-4.07-1.326l1.174-1.469c.83.734 1.944 1.182 2.989 1.182.88 0 1.565-.305 1.565-1.022 0-1.952-5.044-.86-5.024-4.3 0-1.934 1.691-2.76 3.527-2.76 1.21.002 2.49.36 3.355.969Z" fill="#1f2b7d" fill-rule="evenodd" data-name="Caminho 2255"/><path d="M1111.611 3940.236v5.93h-2.071v-5.357c0-1.434-.866-2.312-2.305-2.312-1.586.019-2.576 1.112-2.72 2.599v5.07h-2.07v-9.533h2.07v1.828c.686-1.325 1.909-1.899 3.53-1.899 2.231.002 3.566 1.398 3.566 3.674Z" fill="#1f2b7d" fill-rule="evenodd" data-name="Caminho 2256"/><path d="M1119.23 3945.002c-.683.843-1.783 1.254-3.169 1.254-2.072 0-3.366-1.274-3.366-2.957 0-1.737 1.315-2.847 3.619-2.866h2.898v-.287c0-1.2-.775-1.917-2.287-1.917-.918 0-1.655.322-2.608.967l-1.065-1.432c1.332-.787 2.305-1.2 4.124-1.2 2.468 0 3.855 1.254 3.872 3.351l.019 6.252h-2.035v-1.165h-.002Zm-.018-2.62v-.444h-2.593c-1.35 0-1.982.358-1.982 1.274 0 .86.703 1.414 1.854 1.414 1.481 0 2.822-.763 2.721-2.244Z" fill="#1f2b7d" fill-rule="evenodd" data-name="Caminho 2257"/><path d="M1124.824 3938.534c.648-1.29 1.801-1.97 3.313-1.97v1.97c-1.926-.107-3.15 1.022-3.313 2.652v4.98h-2.071v-9.532h2.07v1.9Z" fill="#1f2b7d" fill-rule="evenodd" data-name="Caminho 2258"/><path d="M1137.705 3942.189h-7.24c.323 1.47 1.46 2.382 2.972 2.382 1.045 0 1.78-.392 2.48-1.11l1.32 1.165c-.936 1.021-2.306 1.612-3.962 1.612-2.954 0-4.9-1.952-4.9-4.82 0-2.884 2-4.837 4.846-4.854 3.367 0 4.736 2.185 4.484 5.625Zm-1.8-1.505c-.073-1.54-1.099-2.471-2.665-2.471-1.512 0-2.576.948-2.81 2.471h5.475Z" fill="#1f2b7d" fill-rule="evenodd" data-name="Caminho 2259"/><path d="M1096.325 3946.237c-2.755 0-4.998-2.17-4.998-4.837 0-2.668 2.242-4.838 4.998-4.838 2.754 0 4.997 2.17 4.997 4.838s-2.243 4.837-4.997 4.837Zm0-7.714c-1.64 0-2.974 1.29-2.974 2.878s1.334 2.878 2.974 2.878c1.64 0 2.973-1.29 2.973-2.878s-1.333-2.878-2.973-2.878Z" fill="#1f2b7d" fill-rule="evenodd" data-name="Caminho 2260"/></g></svg>