<svg xmlns="http://www.w3.org/2000/svg" width="68" height="50" viewBox="918 862 68 50"><g data-name="icon"><path d="M938.554 898.46v5.206" stroke-linejoin="round" stroke-linecap="round" stroke-width="2" stroke="orange" fill="transparent" data-name="Linha 18"/><path d="m927.784 893.883-3.682 3.682" stroke-linejoin="round" stroke-linecap="round" stroke-width="2" stroke="orange" fill="transparent" data-name="Linha 19"/><path d="M923.207 882.833H918" stroke-linejoin="round" stroke-linecap="round" stroke-width="2" stroke="orange" fill="transparent" data-name="Linha 20"/><path d="m927.784 871.782-3.682-3.682" stroke-linejoin="round" stroke-linecap="round" stroke-width="2" stroke="orange" fill="transparent" data-name="Linha 21"/><path d="M938.554 867.207V862" stroke-linejoin="round" stroke-linecap="round" stroke-width="2" stroke="orange" fill="transparent" data-name="Linha 22"/><path d="m949.43 871.782 3.682-3.682" stroke-linejoin="round" stroke-linecap="round" stroke-width="2" stroke="orange" fill="transparent" data-name="Linha 23"/><path d="M953.93 882.833h5.208" stroke-linejoin="round" stroke-linecap="round" stroke-width="2" stroke="orange" fill="transparent" data-name="Linha 24"/><path d="m949.43 893.883 3.682 3.682" stroke-linejoin="round" stroke-linecap="round" stroke-width="2" stroke="orange" fill="transparent" data-name="Linha 25"/><g data-name="Elipse 7"><path d="M929.936 882.733a8.678 8.678 0 1 1 0 .1z" fill="orange" fill-rule="evenodd"/><path d="M929.936 882.733a8.678 8.678 0 1 1 0 .1z" stroke-linejoin="round" stroke-linecap="round" stroke-width="2" stroke="orange" fill="transparent"/></g><g data-name="Caminho 95"><path d="M986 897.42a14.186 14.186 0 0 0-14.233-14.233c-1.656.02-3.298.314-4.86.868-.43-6.225-5.726-10.985-11.962-10.75-6.237.234-11.16 5.378-11.122 11.618.047 1.356.28 2.7.694 3.992a5.901 5.901 0 0 0-1.736-.173c-6.422-.096-11.707 5.033-11.802 11.455-.096 6.423 5.033 11.707 11.455 11.803h29.854c7.618-.655 13.525-6.936 13.712-14.58Z" fill="#57a0ee" fill-rule="evenodd"/><path d="M986 897.42a14.186 14.186 0 0 0-14.233-14.233c-1.656.02-3.298.314-4.86.868-.43-6.225-5.726-10.985-11.962-10.75-6.237.234-11.16 5.378-11.122 11.618.047 1.356.28 2.7.694 3.992a5.901 5.901 0 0 0-1.736-.173c-6.422-.096-11.707 5.033-11.802 11.455-.096 6.423 5.033 11.707 11.455 11.803h29.854c7.618-.655 13.525-6.936 13.712-14.58Z" stroke-linejoin="round" stroke-linecap="round" stroke-width="2" stroke="#fff" fill="transparent"/></g></g></svg>