<svg xmlns="http://www.w3.org/2000/svg" width="30.688" height="32.855" viewBox="4.689 3.328 30.688 32.855"><path d="m29.209 23.814-2.367 2.367 2.167 2.15h-2.65a3.334 3.334 0 0 1-3.334-3.333V8.328a5 5 0 0 0-5.001-5c-1.25 0-2.417.483-3.334 1.3a4.996 4.996 0 0 0-6.667 0 4.955 4.955 0 0 0-3.334-1.3v3.334c.92 0 1.667.746 1.667 1.667v16.669h3.333V8.328a1.667 1.667 0 0 1 3.334 0v16.67h3.334V8.328a1.667 1.667 0 0 1 3.334 0v16.67a6.668 6.668 0 0 0 6.667 6.667h2.65l-2.166 2.15 2.367 2.368 6.167-6.184-6.167-6.185Z" fill="#ff0a6b" fill-rule="evenodd" data-name="Path / zodiac-scorpio"/></svg>