<svg xmlns="http://www.w3.org/2000/svg" width="33.369" height="33.357" viewBox="3.139 3.188 33.369 33.357"><path d="M33.173 28.206a5.004 5.004 0 0 1-5.004 5.003 5.276 5.276 0 0 1-5.003-5.003 37.693 37.693 0 0 1 1.668-7.906 38.284 38.284 0 0 0 1.667-8.773 8.566 8.566 0 0 0-8.339-8.339 8.566 8.566 0 0 0-8.34 8.34c.251 2.551.835 5.053 1.669 7.504l.35 1.168a6.668 6.668 0 0 0-8.373 4.336c-1.15 3.52.818 7.272 4.337 8.39 3.519 1.117 7.255-.834 8.372-4.353.217-.651.317-1.351.317-2.035-.267-2.886-.834-5.738-1.818-8.473a31.29 31.29 0 0 1-1.517-6.538 5.276 5.276 0 0 1 5.003-5.003 5.276 5.276 0 0 1 5.004 5.003 37.693 37.693 0 0 1-1.668 7.906 38.284 38.284 0 0 0-1.668 8.773 8.566 8.566 0 0 0 8.34 8.339 8.34 8.34 0 0 0 8.339-8.34h-3.336m-23.35 1.668a3.336 3.336 0 1 1 0-6.671 3.336 3.336 0 0 1 0 6.671Z" fill="#ff0a6b" fill-rule="evenodd" data-name="Path / zodiac-leo"/></svg>