<svg xmlns="http://www.w3.org/2000/svg" width="26.567" height="29.887" viewBox="6.338 4.981 26.567 29.887"><path d="M32.905 26.566v3.321H21.282v-3.47c4.981-.913 8.235-5.662 7.322-10.643-.913-4.981-5.662-8.236-10.643-7.323a9.119 9.119 0 0 0-7.323 10.644 9.124 9.124 0 0 0 7.323 7.322v3.47H6.338v-3.32h4.848a12.333 12.333 0 0 1-4.018-9.133c0-6.877 5.576-12.453 12.453-12.453 6.878 0 12.453 5.576 12.453 12.453 0 3.47-1.444 6.791-4.018 9.132h4.849m0 4.982H6.338v3.32h26.567v-3.32Z" fill="#ff0a6b" fill-rule="evenodd" data-name="Path / zodiac-libra"/></svg>