<svg xmlns="http://www.w3.org/2000/svg" width="23.357" height="31.697" viewBox="8.898 3.587 23.357 31.697"><path d="M26.564 13.594a11.667 11.667 0 0 0 5.688-10.007h-3.336a8.34 8.34 0 0 1-16.679 0H8.902c0 4.103 2.168 7.905 5.687 10.007-5.537 3.335-7.355 10.474-4.02 16.01 3.286 5.538 10.458 7.34 15.995 4.004 5.538-3.27 7.356-10.44 4.02-15.978a11.501 11.501 0 0 0-4.02-4.036M20.577 31.94a8.34 8.34 0 1 1 0-16.679 8.34 8.34 0 0 1 0 16.679Z" fill="#ff0a6b" fill-rule="evenodd" data-name="Path / zodiac-taurus"/></svg>