<svg xmlns="http://www.w3.org/2000/svg" width="30.021" height="31.689" viewBox="5.482 5.351 30.021 31.689"><path d="M31.334 32.253c2.502-2.268 2.502-6.588 2.502-8.556a6.671 6.671 0 0 0-6.672-6.671 6.535 6.535 0 0 0-3.335.934v-7.606a5.004 5.004 0 0 0-5.004-5.003c-1.25 0-2.418.483-3.336 1.3a4.998 4.998 0 0 0-6.67 0 4.957 4.957 0 0 0-3.337-1.3v3.335c.922 0 1.668.747 1.668 1.668v16.679h3.336V10.354a1.668 1.668 0 0 1 3.336 0v16.679h3.335V10.354a1.668 1.668 0 0 1 3.336 0v13.343c0 1.968 0 6.288 2.502 8.556a14.566 14.566 0 0 1-4.17 1.451v3.336c2.152 0 6.405-2.102 8.34-3.119 1.934 1.017 6.187 3.119 8.339 3.119v-3.336a14.566 14.566 0 0 1-4.17-1.45m-4.17-11.893a3.336 3.336 0 0 1 3.336 3.336c0 4.87-.9 6.672-3.336 6.672-2.435 0-3.335-1.802-3.335-6.672a3.336 3.336 0 0 1 3.335-3.336Z" fill="#ff0a6b" fill-rule="evenodd" data-name="Path / zodiac-virgo"/></svg>