<svg xmlns="http://www.w3.org/2000/svg" width="112.996" height="89.999" viewBox="-17059.996 -3498.999 112.996 89.999"><g data-name="Logo_Copa"><path d="m-17018.905-3471.605 27.394-27.394 27.393 27.394-27.393 27.393-27.394-27.393z" fill="#ed1d6c" fill-rule="evenodd" data-name="Retângulo 558"/><g data-name="Grupo 1797"><g data-name="Grupo 1796" transform="translate(-17060 -3499)" clip-path="url(&quot;#a&quot;)"><path d="M68.498 43.912c9.115 0 16.5-7.396 16.5-16.515 0-9.123-7.39-16.515-16.5-16.515s-16.5 7.396-16.5 16.515 7.39 16.515 16.5 16.515" fill="#5054a4" fill-rule="evenodd" data-name="Caminho 2261"/></g></g><g data-name="Grupo 1799"><g data-name="Grupo 1798" transform="translate(-17008.022 -3488.123)" clip-path="url(&quot;#b&quot;)"><path d="m37.435-2.628.548-.548-1.777-1.776-.547.547h-4.83V.431l-.198.197h-4.835v4.83l-.198.198h-4.83v4.835l-.198.198h-4.835v4.83l-.099.104h-4.835v4.83l-.193.198H5.773v4.835l-.198.198H.74v4.83l-.193.198h-4.835v4.835l-.66.66 1.777 1.776.66-.664v-4.831h4.834l.193-.197V27.46h4.836l.197-.198v-4.835h4.83l.198-.197v-4.831h4.835l.1-.103v-4.83h4.834l.198-.198V7.432h4.83l.198-.197v-4.83h4.835l.193-.198v-4.835h4.835Z" fill="#fff" fill-rule="evenodd" data-name="Caminho 2262"/></g></g><g data-name="Grupo 1802"><g data-name="Grupo 1800" clip-path="url(&quot;#c&quot;)" transform="translate(-17060 -3499)"><path d="M30.915 84.281c1.985-.95 3.45-2.018 4.4-3.202.95-1.185 1.426-2.44 1.426-3.773 0-.906-.202-1.7-.601-2.377-.399-.677-.959-1.233-1.676-1.678-.717-.444-1.555-.775-2.518-1a13.948 13.948 0 0 0-3.12-.332c-2.365 0-4.417.525-6.156 1.57a13.397 13.397 0 0 0-4.32 4.136l1.806 1.677c.74-.57 1.39-.99 1.945-1.265a3.947 3.947 0 0 1 1.756-.412c.57 0 1.067.143 1.488.426.421.282.632.798.632 1.538 0 .655-.197 1.346-.587 2.077-.39.731-.95 1.512-1.676 2.346a36.104 36.104 0 0 1-2.693 2.727 191.806 191.806 0 0 1-3.625 3.248H48.01V84.28H30.915Z" fill="#ed1d6c" fill-rule="evenodd" data-name="Caminho 2264"/></g><g data-name="Grupo 1801" clip-path="url(&quot;#d&quot;)" transform="translate(-17060 -3499)"><path d="M45.958 82.097c-.887-.305-1.33-.785-1.33-1.44 0-.677.443-1.157 1.33-1.44.888-.283 1.972-.426 3.262-.426.632 0 1.228.036 1.788.112a6.93 6.93 0 0 1 1.457.332c.412.148.74.336.981.57.242.233.363.515.363.856 0 .341-.12.624-.363.857-.242.233-.569.426-.981.588a6.61 6.61 0 0 1-1.457.35c-.56.071-1.156.112-1.788.112-1.29-.014-2.379-.166-3.262-.471m7.278 7.221a10.364 10.364 0 0 0 3.325-1.915 9.29 9.29 0 0 0 2.262-2.947c.56-1.14.838-2.409.838-3.804s-.277-2.66-.838-3.803a9.291 9.291 0 0 0-2.262-2.947c-.95-.825-2.057-1.462-3.325-1.915a11.86 11.86 0 0 0-4.02-.682 11.84 11.84 0 0 0-4.02.682 10.364 10.364 0 0 0-3.325 1.915 9.292 9.292 0 0 0-2.263 2.947c-.56 1.14-.837 2.408-.837 3.803s.277 2.66.837 3.804a9.291 9.291 0 0 0 2.263 2.947c.95.825 2.057 1.462 3.325 1.915 1.264.453 2.608.682 4.02.682 1.416 0 2.756-.224 4.02-.682" fill="#ed1d6c" fill-rule="evenodd" data-name="Caminho 2265"/></g></g><path d="M-17018.662-3411.404h49.851v2.341h-49.85v-2.341z" fill="#ed1d6c" fill-rule="evenodd" data-name="Retângulo 562"/><path d="M-16966.82-3433.468c-.309-.291-.461-.686-.461-1.18 0-.461.152-.847.461-1.157.31-.31.695-.462 1.157-.462.43 0 .81.157 1.133.462.323.31.484.696.484 1.158 0 .493-.161.888-.484 1.18-.322.295-.703.439-1.133.439-.462 0-.847-.144-1.157-.44m16.867-3.543c-.354-.835-.672-1.929-.95-3.288-.403-2.005-.932-3.875-1.595-5.602-.663-1.727-1.582-3.225-2.751-4.495-1.174-1.265-2.685-2.26-4.535-2.987-1.85-.727-4.181-1.09-6.986-1.09-1.174 0-2.447.072-3.818.21a22.448 22.448 0 0 0-3.863.718v8.8a10.987 10.987 0 0 1 3.518-.555c.986 0 1.797.107 2.429.323.631.215 1.147.533 1.55.95.399.418.717.933.95 1.552.233.62.453 1.342.672 2.176a8.07 8.07 0 0 0-3.656-.88c-1.08 0-2.066.185-2.962.557-.897.372-1.658.866-2.29 1.48a6.346 6.346 0 0 0-1.457 2.198c-.34.848-.506 1.767-.506 2.754 0 .987.18 1.906.533 2.754a6.79 6.79 0 0 0 1.484 2.225 6.977 6.977 0 0 0 2.267 1.502c.878.373 1.86.557 2.94.557 1.478 0 2.814-.373 4.001-1.113 1.188-.74 2.088-1.7 2.707-2.87.892 1.359 2.057 2.359 3.495 3.01 1.434.65 3.352.973 5.758.973 1.39 0 2.514-.095 3.379-.278a46.053 46.053 0 0 0 2.64-.65v-7.873c-.341.126-.664.184-.973.184-.972.01-1.627-.408-1.98-1.242m-40.622 7.607c-.448-.462-.672-1.005-.672-1.62 0-.618.224-1.156.672-1.618a2.203 2.203 0 0 1 1.645-.696c.618 0 1.156.234 1.617.696.462.462.695 1.004.695 1.619 0 .619-.233 1.157-.695 1.619-.461.462-1.003.695-1.617.695-.65 0-1.201-.233-1.645-.695m.968-13.752a9.631 9.631 0 0 0-3.307 2.965l-1.434-3.566h-10.177v32.416h13.878v-8.195c1.573 1.144 3.437 1.713 5.597 1.713 1.788 0 3.433-.332 4.93-.995a11.615 11.615 0 0 0 3.885-2.777c1.093-1.188 1.949-2.583 2.567-4.19.619-1.605.928-3.35.928-5.234s-.31-3.628-.928-5.234c-.618-1.606-1.474-3.001-2.567-4.19a11.736 11.736 0 0 0-3.886-2.78c-1.496-.664-3.136-.996-4.929-.996-1.725-.005-3.244.354-4.557 1.063m-28.822 2.036a2.238 2.238 0 0 1-.673-1.646c0-.65.224-1.198.673-1.646a2.233 2.233 0 0 1 1.644-.673c.65 0 1.197.224 1.645.673.448.448.672.995.672 1.646 0 .65-.224 1.198-.672 1.646a2.234 2.234 0 0 1-1.645.673c-.65 0-1.196-.224-1.644-.673m-4.235-14.241c-1.788.713-3.325 1.682-4.602 2.92a13.346 13.346 0 0 0-3.007 4.35 13.205 13.205 0 0 0-1.089 5.325c0 1.884.363 3.66 1.089 5.324a13.364 13.364 0 0 0 3.007 4.351c1.277 1.234 2.814 2.207 4.602 2.92 1.788.709 3.746 1.063 5.875 1.063 2.128 0 4.086-.354 5.874-1.063 1.788-.709 3.325-1.682 4.602-2.92a13.483 13.483 0 0 0 3.007-4.35 13.19 13.19 0 0 0 1.09-5.325c0-1.884-.364-3.66-1.09-5.324a13.437 13.437 0 0 0-3.007-4.351c-1.281-1.234-2.814-2.207-4.602-2.92-1.788-.709-3.746-1.063-5.874-1.063-2.124-.005-4.083.354-5.875 1.063m-15.774 1.224c-.864-.865-1.295-1.991-1.295-3.382 0-1.39.43-2.516 1.295-3.382.865-.865 2.035-1.296 3.518-1.296 1.08 0 1.936.215 2.568.65.632.431 1.254.974 1.873 1.62l4.674-2.965c-1.605-3.642-3.796-6.437-6.57-8.383-2.778-1.947-6.094-2.916-9.948-2.916-2.59 0-4.974.44-7.147 1.319s-4.042 2.068-5.597 3.566a15.908 15.908 0 0 0-3.634 5.279c-.865 2.023-1.295 4.19-1.295 6.504 0 2.314.43 4.485 1.295 6.508a15.908 15.908 0 0 0 3.634 5.28c1.555 1.498 3.424 2.686 5.597 3.565 2.173.88 4.557 1.32 7.147 1.32 3.854 0 7.17-.974 9.948-2.916 2.774-1.947 4.965-4.737 6.57-8.384l-4.674-2.964a14.242 14.242 0 0 1-1.873 1.596c-.632.449-1.488.673-2.568.673-1.483.005-2.657-.426-3.518-1.292" fill-rule="evenodd" data-name="Caminho 2266"/><path d="M-16972.508-3414.719c1.987-.95 3.453-2.018 4.404-3.202.951-1.184 1.427-2.44 1.427-3.773 0-.906-.202-1.7-.601-2.377-.4-.677-.96-1.233-1.678-1.677-.718-.444-1.556-.776-2.52-1-.96-.22-2.001-.333-3.123-.333-2.368 0-4.422.525-6.163 1.57a13.404 13.404 0 0 0-4.324 4.136l1.808 1.677c.74-.57 1.39-.99 1.947-1.264a3.954 3.954 0 0 1 1.758-.413c.57 0 1.068.143 1.49.426.42.283.632.798.632 1.539 0 .654-.198 1.345-.588 2.076-.39.731-.95 1.512-1.677 2.346a36.097 36.097 0 0 1-2.696 2.727 191.628 191.628 0 0 1-3.629 3.248h19.96v-5.706h-6.427Z" fill="#ed1d6c" fill-rule="evenodd" data-name="Caminho 2267"/><path d="M-16953.607-3414.719c1.987-.95 3.454-2.018 4.405-3.202.95-1.184 1.426-2.44 1.426-3.773 0-.906-.202-1.7-.6-2.377-.4-.677-.96-1.233-1.678-1.677-.718-.444-1.557-.776-2.521-1-.96-.22-2-.333-3.122-.333-2.368 0-4.423.525-6.163 1.57a13.407 13.407 0 0 0-4.324 4.136l1.808 1.677c.74-.57 1.39-.99 1.946-1.264a3.954 3.954 0 0 1 1.759-.413c.57 0 1.067.143 1.489.426.421.283.632.798.632 1.539 0 .654-.197 1.345-.587 2.076-.39.731-.951 1.512-1.678 2.346a36.085 36.085 0 0 1-2.696 2.727 191.344 191.344 0 0 1-3.628 3.248h19.96v-5.706h-6.428Z" fill="#ed1d6c" fill-rule="evenodd" data-name="Caminho 2268"/></g><defs><clipPath id="a"><path d="M0 0h112.982v90H0V0z" data-name="Retângulo 559"/></clipPath><clipPath id="b"><path d="M411.22 238.145c0 9.124 7.396 16.52 16.52 16.52 9.123 0 16.515-7.396 16.515-16.52 0-9.123-7.396-16.515-16.515-16.515-9.124 0-16.52 7.392-16.52 16.515" data-name="Caminho 2263" transform="translate(-411.22 -221.63)"/></clipPath><clipPath id="c"><path d="M0 0h112.982v90H0V0z" data-name="Retângulo 560"/></clipPath><clipPath id="d"><path d="M0 0h112.982v90H0V0z" data-name="Retângulo 561"/></clipPath></defs></svg>